HIERARCHY
ROOT root
{
	OFFSET	0	13.1	24.9
	CHANNELS 6  Xposition Yposition Zposition Xrotation Yrotation Zrotation
	JOINT spine_1
	{
		OFFSET	0	9.99999	0
		CHANNELS 3  Xrotation Yrotation Zrotation
		JOINT spine_2
		{
			OFFSET	0	112	-10
			CHANNELS 3  Xrotation Yrotation Zrotation
			JOINT spine_3
			{
				OFFSET	0	206.5	19.3
				CHANNELS 3  Xrotation Yrotation Zrotation
				JOINT spine_4
				{
					OFFSET	0	110.4	14.6
					CHANNELS 3  Xrotation Yrotation Zrotation
					JOINT neck_1
					{
						OFFSET	0	71.8	-50.3
						CHANNELS 3  Xrotation Yrotation Zrotation
						JOINT neck_2
						{
							OFFSET	0	86.2	-25.8
							CHANNELS 3  Xrotation Yrotation Zrotation
							JOINT head_ee
							{
								OFFSET	0	179.8	-8.7
								CHANNELS 3  Xrotation Yrotation Zrotation
								End Site
								{
									OFFSET	1	0	0
								}
							}
						}
					}
					JOINT left_clavicle
					{
						OFFSET	-43.2	22.4	-70.8
						CHANNELS 3  Xrotation Yrotation Zrotation
						JOINT left_shoulder
						{
							OFFSET	-93.9	-5.79999	48.7
							CHANNELS 3  Xrotation Yrotation Zrotation
							JOINT left_elbow
							{
								OFFSET	-291.4	-30.8	15.2
								CHANNELS 3  Xrotation Yrotation Zrotation
								JOINT left_lowarm_twist
								{
									OFFSET	-110.7	-3.89999	13.6
									CHANNELS 3  Xrotation Yrotation Zrotation
									JOINT left_hand
									{
										OFFSET	-110.7	-3.89999	13.6
										CHANNELS 3  Xrotation Yrotation Zrotation
										JOINT left_ee
										{
											OFFSET	-80.8	-5.10001	12.1
											CHANNELS 3  Xrotation Yrotation Zrotation
											End Site
											{
												OFFSET	1	0	0
											}
										}
									}
								}
							}
						}
					}
					JOINT right_clavicle
					{
						OFFSET	43.2	22.4	-70.8
						CHANNELS 3  Xrotation Yrotation Zrotation
						JOINT right_shoulder
						{
							OFFSET	93.9	-5.79999	48.7
							CHANNELS 3  Xrotation Yrotation Zrotation
							JOINT right_elbow
							{
								OFFSET	291.4	-30.8	15.2
								CHANNELS 3  Xrotation Yrotation Zrotation
								JOINT right_lowarm_twist
								{
									OFFSET	110.7	-3.89999	13.6
									CHANNELS 3  Xrotation Yrotation Zrotation
									JOINT right_hand
									{
										OFFSET	110.7	-3.89999	13.6
										CHANNELS 3  Xrotation Yrotation Zrotation
										JOINT right_ee
										{
											OFFSET	80.8	-5.10001	12.1
											CHANNELS 3  Xrotation Yrotation Zrotation
											End Site
											{
												OFFSET	1	0	0
											}
										}
									}
								}
							}
						}
					}
				}
			}
		}
	}
	JOINT left_hip
	{
		OFFSET	-82.8	-127.5	0.300001
		CHANNELS 3  Xrotation Yrotation Zrotation
		JOINT left_knee
		{
			OFFSET	-28.2	-396.7	2.2
			CHANNELS 3  Xrotation Yrotation Zrotation
			JOINT left_ankle
			{
				OFFSET	-11.7	-411.3	35.4
				CHANNELS 3  Xrotation Yrotation Zrotation
				JOINT left_toes
				{
					OFFSET	0	-60	-88.6
					CHANNELS 3  Xrotation Yrotation Zrotation
					JOINT left_foot_ee
					{
						OFFSET	-22.5	-16.5	-42.2
						CHANNELS 3  Xrotation Yrotation Zrotation
						End Site
						{
							OFFSET	1	0	0
						}
					}
				}
			}
		}
	}
	JOINT right_hip
	{
		OFFSET	82.8	-127.5	0.300001
		CHANNELS 3  Xrotation Yrotation Zrotation
		JOINT right_knee
		{
			OFFSET	28.2	-396.7	2.2
			CHANNELS 3  Xrotation Yrotation Zrotation
			JOINT right_ankle
			{
				OFFSET	11.7	-411.3	35.4
				CHANNELS 3  Xrotation Yrotation Zrotation
				JOINT right_toes
				{
					OFFSET	0	-60	-88.6
					CHANNELS 3  Xrotation Yrotation Zrotation
					JOINT right_foot_ee
					{
						OFFSET	22.5	-16.5	-42.2
						CHANNELS 3  Xrotation Yrotation Zrotation
						End Site
						{
							OFFSET	1	0	0
						}
					}
				}
			}
		}
	}
}
MOTION
Frames: 13
Frame Time: 0.02
3574.42 741.953 -1474.73 -33.6964380769 80.90814101 36.1009897255 2.19729 -0.0995317 -1.10435 2.19797 -0.0290615 -1.10845 2.19846 0.162619 -1.09684 2.19678 -0.0126364 -1.10876 -8.01588 14.9701 6.86851 -7.96353 23.1617 10.057 -0.0 0.0 -0.0 1.89109 23.3082 5.29688 -0.609194 -23.3441 70.714 3.41554 -59.4014 1.94864 -65.3419 -5.95359 5.23619 0.886833 3.9477 7.52491 -0.0 0.0 -0.0 10.4607 -14.5596 -19.1062 -18.8742 -2.01518 -57.5571 0.24152 6.82271 -0.014397 -44.2199 3.41071 -4.347 -5.73317 -28.6432 20.2694 0.0 0.0 0.0 -0.670954 13.2073 -8.59739 3.41755 -0.155746 -0.501174 22.6788 -11.2366 -3.21592 -13.4546 0.0 0.0 -0.0 0.0 -0.0 13.7816 10.6852 -6.94789 -9.46603 -0.272501 -1.42553 20.5796 -5.12979 2.80389 -12.9093 0.0 0.0 0.0 0.0 0.0 
3574.42 741.953 -1474.73 -31.2723704125 80.2772586917 33.6439244861 2.19729 -0.0995317 -1.10435 2.19797 -0.0290615 -1.10845 2.19846 0.162619 -1.09684 2.19678 -0.0126364 -1.10876 -8.01588 14.9701 6.86851 -7.96353 23.1617 10.057 -0.0 0.0 -0.0 1.89109 23.3082 5.29688 -0.609194 -23.3441 70.714 3.41554 -59.4014 1.94864 -65.3419 -5.95359 5.23619 0.886833 3.9477 7.52491 -0.0 0.0 -0.0 10.4607 -14.5596 -19.1062 -18.8742 -2.01518 -57.5571 0.24152 6.82271 -0.014397 -44.2199 3.41071 -4.347 -5.73317 -28.6432 20.2694 0.0 0.0 0.0 -0.670954 13.2073 -8.59739 3.41755 -0.155746 -0.501174 22.6788 -11.2366 -3.21592 -13.4546 0.0 0.0 -0.0 0.0 -0.0 13.7816 10.6852 -6.94789 -9.46603 -0.272501 -1.42553 20.5796 -5.12979 2.80389 -12.9093 0.0 0.0 0.0 0.0 0.0 
3574.42 741.953 -1474.73 -28.4954597306 79.4114948519 30.8229121664 2.19729 -0.0995317 -1.10435 2.19797 -0.0290615 -1.10845 2.19846 0.162619 -1.09684 2.19678 -0.0126364 -1.10876 -8.01588 14.9701 6.86851 -7.96353 23.1617 10.057 -0.0 0.0 -0.0 1.89109 23.3082 5.29688 -0.609194 -23.3441 70.714 3.41554 -59.4014 1.94864 -65.3419 -5.95359 5.23619 0.886833 3.9477 7.52491 -0.0 0.0 -0.0 10.4607 -14.5596 -19.1062 -18.8742 -2.01518 -57.5571 0.24152 6.82271 -0.014397 -44.2199 3.41071 -4.347 -5.73317 -28.6432 20.2694 0.0 0.0 0.0 -0.670954 13.2073 -8.59739 3.41755 -0.155746 -0.501174 22.6788 -11.2366 -3.21592 -13.4546 0.0 0.0 -0.0 0.0 -0.0 13.7816 10.6852 -6.94789 -9.46603 -0.272501 -1.42553 20.5796 -5.12979 2.80389 -12.9093 0.0 0.0 0.0 0.0 0.0 
3574.42 741.953 -1474.73 -25.9836183599 78.4571314323 28.2635897927 2.19729 -0.0995317 -1.10435 2.19797 -0.0290615 -1.10845 2.19846 0.162619 -1.09684 2.19678 -0.0126364 -1.10876 -8.01588 14.9701 6.86851 -7.96353 23.1617 10.057 -0.0 0.0 -0.0 1.89109 23.3082 5.29688 -0.609194 -23.3441 70.714 3.41554 -59.4014 1.94864 -65.3419 -5.95359 5.23619 0.886833 3.9477 7.52491 -0.0 0.0 -0.0 10.4607 -14.5596 -19.1062 -18.8742 -2.01518 -57.5571 0.24152 6.82271 -0.014397 -44.2199 3.41071 -4.347 -5.73317 -28.6432 20.2694 0.0 0.0 0.0 -0.670954 13.2073 -8.59739 3.41755 -0.155746 -0.501174 22.6788 -11.2366 -3.21592 -13.4546 0.0 0.0 -0.0 0.0 -0.0 13.7816 10.6852 -6.94789 -9.46603 -0.272501 -1.42553 20.5796 -5.12979 2.80389 -12.9093 0.0 0.0 0.0 0.0 0.0 
3574.42 741.953 -1474.73 -23.7226371292 77.4137168724 25.9516510679 2.19729 -0.0995317 -1.10435 2.19797 -0.0290615 -1.10845 2.19846 0.162619 -1.09684 2.19678 -0.0126364 -1.10876 -8.01588 14.9701 6.86851 -7.96353 23.1617 10.057 -0.0 0.0 -0.0 1.89109 23.3082 5.29688 -0.609194 -23.3441 70.714 3.41554 -59.4014 1.94864 -65.3419 -5.95359 5.23619 0.886833 3.9477 7.52491 -0.0 0.0 -0.0 10.4607 -14.5596 -19.1062 -18.8742 -2.01518 -57.5571 0.24152 6.82271 -0.014397 -44.2199 3.41071 -4.347 -5.73317 -28.6432 20.2694 0.0 0.0 0.0 -0.670954 13.2073 -8.59739 3.41755 -0.155746 -0.501174 22.6788 -11.2366 -3.21592 -13.4546 0.0 0.0 -0.0 0.0 -0.0 13.7816 10.6852 -6.94789 -9.46603 -0.272501 -1.42553 20.5796 -5.12979 2.80389 -12.9093 0.0 0.0 0.0 0.0 0.0 
3565.38863171 741.122 -1481.08158144 -23.1518720899 76.9672300758 25.4344601535 2.37903 0.00791941 -1.04811 2.37964 0.0745937 -1.04548 2.37817 0.250679 -1.01773 2.37673 0.0868114 -1.04454 -8.01212 15.2166 6.5037 -7.97719 23.8827 9.75721 -0.0 0.0 -0.0 1.60022 22.823 4.86576 -1.81795 -23.7183 70.906 3.55139 -60.37 2.06615 -65.216 -5.93764 5.23373 0.993448 2.93017 7.83107 -0.0 0.0 -0.0 10.6014 -15.1107 -19.2707 -18.29 -1.83847 -57.806 0.233233 6.59071 -0.0134292 -43.8066 3.36479 -4.32046 -5.60626 -28.5977 19.5639 0.0 0.0 0.0 0.0774754 14.5334 -9.47985 2.36118 -0.10441 -0.347243 21.1337 -11.4447 -3.0254 -13.3622 0.0 0.0 -0.0 0.0 -0.0 13.731 11.0464 -6.9965 -11.8133 -0.303355 -1.78436 18.7976 -3.96607 2.58472 -14.0201 0.0 0.0 0.0 0.0 0.0 
3565.55156588 741.122 -1481.30716324 -20.9290181453 75.6284406345 23.1466641616 2.37903 0.00791941 -1.04811 2.37964 0.0745937 -1.04548 2.37817 0.250679 -1.01773 2.37673 0.0868114 -1.04454 -8.01212 15.2166 6.5037 -7.97719 23.8827 9.75721 -0.0 0.0 -0.0 1.60022 22.823 4.86576 -1.81795 -23.7183 70.906 3.55139 -60.37 2.06615 -65.216 -5.93764 5.23373 0.993448 2.93017 7.83107 -0.0 0.0 -0.0 10.6014 -15.1107 -19.2707 -18.29 -1.83847 -57.806 0.233233 6.59071 -0.0134292 -43.8066 3.36479 -4.32046 -5.60626 -28.5977 19.5639 0.0 0.0 0.0 0.0774754 14.5334 -9.47985 2.36118 -0.10441 -0.347243 21.1337 -11.4447 -3.0254 -13.3622 0.0 0.0 -0.0 0.0 -0.0 13.731 11.0464 -6.9965 -11.8133 -0.303355 -1.78436 18.7976 -3.96607 2.58472 -14.0201 0.0 0.0 0.0 0.0 0.0 
3565.76983286 741.122 -1481.59169137 -18.6189414977 73.8768267547 20.7526083873 2.37903 0.00791941 -1.04811 2.37964 0.0745937 -1.04548 2.37817 0.250679 -1.01773 2.37673 0.0868114 -1.04454 -8.01212 15.2166 6.5037 -7.97719 23.8827 9.75721 -0.0 0.0 -0.0 1.60022 22.823 4.86576 -1.81795 -23.7183 70.906 3.55139 -60.37 2.06615 -65.216 -5.93764 5.23373 0.993448 2.93017 7.83107 -0.0 0.0 -0.0 10.6014 -15.1107 -19.2707 -18.29 -1.83847 -57.806 0.233233 6.59071 -0.0134292 -43.8066 3.36479 -4.32046 -5.60626 -28.5977 19.5639 0.0 0.0 0.0 0.0774754 14.5334 -9.47985 2.36118 -0.10441 -0.347243 21.1337 -11.4447 -3.0254 -13.3622 0.0 0.0 -0.0 0.0 -0.0 13.731 11.0464 -6.9965 -11.8133 -0.303355 -1.78436 18.7976 -3.96607 2.58472 -14.0201 0.0 0.0 0.0 0.0 0.0 
3560.6627027 742.481 -1486.33117973 -19.162506868 72.6640195669 20.9955165463 2.50746 0.212037 -1.04958 2.50803 0.278391 -1.03396 2.50283 0.447489 -0.972804 2.50163 0.288245 -1.03126 -8.55954 15.0994 6.23468 -8.56615 23.9728 9.57669 -0.0 0.0 -0.0 1.72077 23.3677 5.06575 -1.64096 -23.9398 71.6096 3.354 -58.9435 1.89579 -65.7253 -6.00213 5.24345 1.02525 2.30204 7.793 -0.0 0.0 -0.0 10.8236 -14.9501 -19.6896 -18.4169 -1.09652 -57.929 0.191753 5.42632 -0.00908707 -44.2668 3.41593 -4.34999 -5.29233 -28.592 17.7513 0.0 0.0 0.0 3.53843 12.9716 -10.3261 -1.58336 0.0619488 0.235086 21.2797 -14.1985 -3.09696 -12.9075 0.0 0.0 -0.0 0.0 -0.0 12.5297 12.5348 -6.94705 -8.15478 -0.248872 -1.22571 21.8522 -4.66916 2.95999 -15.1466 0.0 0.0 0.0 0.0 0.0 
3561.3163232 742.481 -1487.06467691 -16.3622416657 69.6837983111 18.0380450565 2.50746 0.212037 -1.04958 2.50803 0.278391 -1.03396 2.50283 0.447489 -0.972804 2.50163 0.288245 -1.03126 -8.55954 15.0994 6.23468 -8.56615 23.9728 9.57669 -0.0 0.0 -0.0 1.72077 23.3677 5.06575 -1.64096 -23.9398 71.6096 3.354 -58.9435 1.89579 -65.7253 -6.00213 5.24345 1.02525 2.30204 7.793 -0.0 0.0 -0.0 10.8236 -14.9501 -19.6896 -18.4169 -1.09652 -57.929 0.191753 5.42632 -0.00908707 -44.2668 3.41593 -4.34999 -5.29233 -28.592 17.7513 0.0 0.0 0.0 3.53843 12.9716 -10.3261 -1.58336 0.0619488 0.235086 21.2797 -14.1985 -3.09696 -12.9075 0.0 0.0 -0.0 0.0 -0.0 12.5297 12.5348 -6.94705 -8.15478 -0.248872 -1.22571 21.8522 -4.66916 2.95999 -15.1466 0.0 0.0 0.0 0.0 0.0 
3556.43667064 737.666 -1499.49310694 -15.7466714624 67.7489319637 17.1363397957 2.60791 0.075687 -1.03996 2.6085 0.141705 -1.03304 2.60579 0.310768 -0.995328 2.60444 0.149683 -1.03191 -8.5961 15.9663 5.90099 -8.63513 25.8488 9.46935 -0.0 0.0 -0.0 1.39012 22.5821 4.55693 -1.97866 -23.8279 72.0195 3.19349 -57.6892 1.7592 -65.0505 -5.9167 5.23045 1.17245 1.8728 8.6093 -0.0 0.0 -0.0 10.9773 -15.7418 -19.8299 -17.3662 0.0331059 -58.401 0.195748 5.53867 -0.00946873 -44.4483 3.43618 -4.36152 -5.43061 -28.7283 18.443 0.0 0.0 0.0 3.12355 12.9091 -10.5193 0.709226 -0.0298538 -0.104739 21.2231 -16.1282 -3.13218 -13.4753 0.0 0.0 -0.0 0.0 -0.0 12.4652 13.3486 -6.85756 -9.8386 -0.278379 -1.4824 24.2592 -1.4615 3.25808 -15.0349 0.0 0.0 0.0 0.0 0.0 
3510.77158978 731.522 -1519.78050029 -24.1091417022 77.4127082517 25.4138192656 2.74063 -0.0153458 -0.689052 2.74089 0.0285303 -0.688632 2.74048 0.140534 -0.674744 2.73984 0.0322099 -0.68847 -10.1835 12.7399 4.99858 -10.2693 20.6759 8.09996 -0.0 0.0 -0.0 1.27236 24.2515 4.51247 -5.52543 -25.7883 72.062 2.09646 -46.077 0.891638 -64.0566 -5.79113 5.20945 0.829981 2.50703 6.56949 -0.0 0.0 -0.0 11.1494 -15.0163 -20.2592 -14.0906 5.11197 -61.7239 0.223409 6.3154 -0.012325 -44.4668 3.43824 -4.3627 -4.53265 -28.6654 13.3983 0.0 0.0 0.0 7.8231 16.0657 -13.2508 -11.9492 0.304691 1.80516 28.6021 -16.6154 -4.05458 -9.85555 0.0 0.0 -0.0 0.0 -0.0 9.26406 10.5499 -7.0713 -11.1584 -0.296225 -1.68412 32.2796 -3.51101 4.13034 -18.5175 0.0 0.0 0.0 0.0 0.0 
3476.64353177 725.864 -1517.39805666 -86.6060772886 86.0378310642 88.1512172803 2.65714 0.580342 -0.653926 2.65716 0.620776 -0.615674 2.65042 0.713748 -0.504955 2.65061 0.625043 -0.61134 -10.6724 11.9576 4.63306 -10.7698 19.5181 7.62428 -0.0 0.0 -0.0 0.395781 24.1213 3.31981 -9.03458 -27.8743 71.5817 1.63015 -38.9188 0.576 -64.2104 -5.81054 5.21284 0.691435 0.586778 4.86338 -0.0 0.0 -0.0 11.1303 -13.2447 -20.5163 -9.69121 6.87899 -64.6615 0.203535 5.75755 -0.010235 -43.7215 3.35536 -4.31495 -3.47411 -28.6543 7.57827 0.0 0.0 0.0 13.3563 17.0611 -14.1509 -22.9109 0.249722 3.48362 32.8509 -12.7844 -4.41422 -9.13849 0.0 0.0 -0.0 0.0 -0.0 6.15818 6.84463 -7.56006 -12.3632 -0.308457 -1.86858 36.9262 -4.33308 4.58234 -19.7135 0.0 0.0 0.0 0.0 0.0 
